<svg xmlns="http://www.w3.org/2000/svg" width="190.16" height="190" viewBox="0 0 190.16 190">
  <g id="bubbles" transform="translate(0.014 -0.18)" opacity="0.2">
    <path id="Tracé_593" data-name="Tracé 593" d="M123.612,80.167A65.957,65.957,0,0,0,79.277,97.218a44.336,44.336,0,1,0-19.318,68.767,64.324,64.324,0,0,0,3.32,8.618,34.816,34.816,0,1,0,52.775,38.09,66.482,66.482,0,1,0,7.558-132.526ZM6.439,124.5a37.935,37.935,0,0,1,68.3-22.8A65.975,65.975,0,0,0,57.109,146.67a66.936,66.936,0,0,0,1.327,13.114,37.9,37.9,0,0,1-52-35.282Zm76,107.673a28.5,28.5,0,1,1,28.5-28.5A28.5,28.5,0,0,1,82.444,232.175Zm41.169-25.335a59.975,59.975,0,0,1-6.473-.4c.073-.915.139-1.835.139-2.771a34.835,34.835,0,0,0-48.409-32.08,58.806,58.806,0,0,1-3.711-10.631,60.173,60.173,0,1,1,58.454,45.877Zm0,0" transform="translate(0 -48.319)" fill="#fffff8"/>
    <path id="Tracé_594" data-name="Tracé 594" d="M43.29,355.347a3.167,3.167,0,1,0-6.334,0,9.5,9.5,0,0,1-9.5,9.5,3.167,3.167,0,0,0,0,6.334,9.5,9.5,0,0,1,9.5,9.5,3.167,3.167,0,1,0,6.334,0,9.5,9.5,0,0,1,9.5-9.5,3.167,3.167,0,1,0,0-6.334A9.5,9.5,0,0,1,43.29,355.347ZM40.123,371.28a15.785,15.785,0,0,0-3.264-3.266,15.777,15.777,0,0,0,3.264-3.264,15.785,15.785,0,0,0,3.266,3.264A15.792,15.792,0,0,0,40.123,371.28Zm0,0" transform="translate(-14.683 -212.659)" fill="#fffff8"/>
    <path id="Tracé_595" data-name="Tracé 595" d="M372.956,28.681a3.167,3.167,0,1,0,6.334,0,9.5,9.5,0,0,1,9.5-9.5,3.167,3.167,0,1,0,0-6.334,9.5,9.5,0,0,1-9.5-9.5,3.167,3.167,0,0,0-6.334,0,9.5,9.5,0,0,1-9.5,9.5,3.167,3.167,0,1,0,0,6.334A9.5,9.5,0,0,1,372.956,28.681Zm3.167-15.932a15.785,15.785,0,0,0,3.266,3.264,15.793,15.793,0,0,0-3.266,3.266,15.784,15.784,0,0,0-3.264-3.266A15.776,15.776,0,0,0,376.123,12.75Zm0,0" transform="translate(-217.676)" fill="#fffff8"/>
    <path id="Tracé_596" data-name="Tracé 596" d="M372.791,228.847a9.5,9.5,0,0,1-9.5-9.5,3.167,3.167,0,1,0-6.334,0,9.5,9.5,0,0,1-9.5,9.5,3.167,3.167,0,0,0,0,6.334,9.5,9.5,0,0,1,9.5,9.5,3.167,3.167,0,1,0,6.334,0,9.5,9.5,0,0,1,9.5-9.5,3.167,3.167,0,0,0,0-6.334Zm-12.667,6.433a15.784,15.784,0,0,0-3.264-3.266,15.777,15.777,0,0,0,3.264-3.264,15.785,15.785,0,0,0,3.266,3.264A15.791,15.791,0,0,0,360.123,235.28Zm0,0" transform="translate(-208.009 -130.495)" fill="#fffff8"/>
    <path id="Tracé_597" data-name="Tracé 597" d="M279.957,160.014a3.167,3.167,0,0,0-3.167-3.167,9.5,9.5,0,0,1-9.5-9.5,3.167,3.167,0,1,0-6.334,0,9.5,9.5,0,0,1-9.5,9.5,3.167,3.167,0,1,0,0,6.334,9.5,9.5,0,0,1,9.5,9.5,3.167,3.167,0,0,0,6.334,0,9.5,9.5,0,0,1,9.5-9.5A3.167,3.167,0,0,0,279.957,160.014Zm-15.834,3.266a15.784,15.784,0,0,0-3.264-3.266,15.777,15.777,0,0,0,3.264-3.264,15.784,15.784,0,0,0,3.266,3.264A15.791,15.791,0,0,0,264.123,163.28Zm0,0" transform="translate(-150.011 -86.997)" fill="#fffff8"/>
    <path id="Tracé_598" data-name="Tracé 598" d="M96.289,328.18h6.334v6.334H96.289Zm0,0" transform="translate(-58.181 -198.16)" fill="#fffff8"/>
    <path id="Tracé_599" data-name="Tracé 599" d="M16.289,440.18h6.334v6.334H16.289Zm0,0" transform="translate(-9.85 -265.824)" fill="#fffff8"/>
    <path id="Tracé_600" data-name="Tracé 600" d="M443.29,401.68a9.5,9.5,0,1,0-9.5,9.5A9.5,9.5,0,0,0,443.29,401.68Zm-12.667,0a3.167,3.167,0,1,1,3.167,3.167A3.167,3.167,0,0,1,430.623,401.68Zm0,0" transform="translate(-256.341 -236.825)" fill="#fffff8"/>
    <path id="Tracé_601" data-name="Tracé 601" d="M201.624,36.847a12.667,12.667,0,1,0-12.667,12.667A12.668,12.668,0,0,0,201.624,36.847Zm-19,0a6.334,6.334,0,1,1,6.334,6.334A6.334,6.334,0,0,1,182.623,36.847Zm0,0" transform="translate(-106.513 -14.499)" fill="#fffff8"/>
    <path id="Tracé_602" data-name="Tracé 602" d="M288.289,40.18h6.334v6.334h-6.334Zm0,0" transform="translate(-174.177 -24.166)" fill="#fffff8"/>
    <path id="Tracé_603" data-name="Tracé 603" d="M320.289,336.18h6.334v6.334h-6.334Zm0,0" transform="translate(-193.51 -202.993)" fill="#fffff8"/>
    <path id="Tracé_604" data-name="Tracé 604" d="M368.289,440.18h6.334v6.334h-6.334Zm0,0" transform="translate(-222.509 -265.824)" fill="#fffff8"/>
    <path id="Tracé_605" data-name="Tracé 605" d="M96.289,208.18h6.334v6.334H96.289Zm0,0" transform="translate(-58.181 -125.662)" fill="#fffff8"/>
    <path id="Tracé_606" data-name="Tracé 606" d="M32.138,150.4l6.334-.571c-.015-.152-1.266-15.223,7.077-24.385a23.605,23.605,0,0,1,18.257-7v-6.334a29.64,29.64,0,0,0-22.944,9.071C30.639,132.386,32.084,149.676,32.138,150.4Zm0,0" transform="translate(-19.365 -67.601)" fill="#fffff8"/>
    <path id="Tracé_607" data-name="Tracé 607" d="M320.289,112.18v6.334c1.583,0,38.494.676,44.371,44.755l6.276-.837C364.308,112.756,320.73,112.18,320.289,112.18Zm0,0" transform="translate(-193.51 -67.664)" fill="#fffff8"/>
  </g>
</svg>
