<svg xmlns="http://www.w3.org/2000/svg" width="505.925" height="356.542" viewBox="0 0 505.925 356.542">
  <g id="Groupe_30" data-name="Groupe 30" transform="translate(-0.006)" opacity="0.05">
    <circle id="Ellipse_1" data-name="Ellipse 1" cx="27.552" cy="27.552" r="27.552" transform="translate(230.84 300.681)" fill="#2c3392"/>
    <path id="Tracé_77" data-name="Tracé 77" d="M472.579,373.045c15.414-4.629,31.8-9.456,44.026-20.461,10.923-9.834,18.3-24.851,13.773-39.6-4.516-14.718-18.043-24.531-32.009-29.412a131.348,131.348,0,0,0-24.493-5.511c-9.005-1.311-18.05-2.386-27.091-3.42q-54.911-6.28-110.236-7.673c-18.2-.458-36.4-.447-54.6-.183-16.256.236-33.376.23-48.456-6.679-11.727-5.373-22.37-15.147-25.638-27.991-3.772-14.827,3.185-29.927,13.165-40.665a106.616,106.616,0,0,1,17.751-14.805c6.881-4.752,14-9.168,21.276-13.29a296.292,296.292,0,0,1,44.783-20.646c7.634-2.776,15.382-5.17,23.2-7.38a198.686,198.686,0,0,0,19.6-6.275c12.329-4.914,24.055-13.237,27.189-26.883,2.971-12.932-2.038-26.972-10.82-36.579-10.16-11.115-25.479-15.988-40.167-16.776-16.488-.885-32.6,3.242-48.1,8.478C259.2,62.881,243.03,69.3,226.151,73.829a333.6,333.6,0,0,1-51.029,9.485c-8.435.9-17.124,1.912-25.609,1.225-7.111-.576-14.186-2.668-19.427-7.715-4.494-4.328-7.171-10.275-6.25-16.551.167-1.14,1.9-.655,1.733.477-1.121,7.64,4.072,14.68,10.472,18.286,7.4,4.168,16.4,4.173,24.631,3.7a322.192,322.192,0,0,0,53.017-7.664c17.126-3.912,33.64-9.5,50.136-15.477,15.667-5.673,31.684-11.21,48.42-12.439,14.522-1.066,29.8,1.049,42.451,8.639a46.963,46.963,0,0,1,21.9,30.558c2.546,12.473-.98,25.028-10.422,33.732C356.4,129.1,342.994,132.948,330.5,136.5a326.783,326.783,0,0,0-46.355,16.593,291,291,0,0,0-43.6,24.514c-13.325,9.105-26.475,20.563-30.689,36.807a33.91,33.91,0,0,0,1.684,22.74,41.554,41.554,0,0,0,13.334,15.823c13.37,9.838,30.22,11.858,46.369,12.058,18.137.226,36.275-.386,54.419-.089q55.463.911,110.7,6.752,13.842,1.465,27.647,3.239a249.967,249.967,0,0,1,24.724,4.01c14.473,3.359,28.555,9.818,37.55,22.089a34.93,34.93,0,0,1,2.975,38.194c-6.907,13.59-19.846,22.235-33.586,27.914a238.251,238.251,0,0,1-22.612,7.634.9.9,0,0,1-.477-1.732Z" transform="translate(-49.587 -18.807)" fill="#f2f2f2"/>
    <circle id="Ellipse_2" data-name="Ellipse 2" cx="14.375" cy="14.375" r="14.375" transform="translate(61.033 27.253)" fill="#f2f2f2"/>
    <circle id="Ellipse_3" data-name="Ellipse 3" cx="14.375" cy="14.375" r="14.375" transform="translate(160.761 54.506)" fill="#f2f2f2"/>
    <circle id="Ellipse_4" data-name="Ellipse 4" cx="14.375" cy="14.375" r="14.375" transform="translate(245.215)" fill="#f2f2f2"/>
    <circle id="Ellipse_5" data-name="Ellipse 5" cx="14.375" cy="14.375" r="14.375" transform="translate(297.924 61.095)" fill="#f2f2f2"/>
    <circle id="Ellipse_6" data-name="Ellipse 6" cx="14.375" cy="14.375" r="14.375" transform="translate(226.647 131.772)" fill="#f2f2f2"/>
    <circle id="Ellipse_7" data-name="Ellipse 7" cx="14.375" cy="14.375" r="14.375" transform="translate(134.086 192.176) rotate(-80.783)" fill="#f2f2f2"/>
    <circle id="Ellipse_8" data-name="Ellipse 8" cx="14.375" cy="14.375" r="14.375" transform="translate(232.037 219.221)" fill="#f2f2f2"/>
    <circle id="Ellipse_9" data-name="Ellipse 9" cx="14.375" cy="14.375" r="14.375" transform="translate(335.06 249.17)" fill="#f2f2f2"/>
    <circle id="Ellipse_10" data-name="Ellipse 10" cx="14.375" cy="14.375" r="14.375" transform="translate(455.452 242.581)" fill="#f2f2f2"/>
    <path id="Tracé_78" data-name="Tracé 78" d="M373.613,68a79.733,79.733,0,0,0-78.93,78.355c-.005.4-.008,3.192-.008,6.849a20.213,20.213,0,0,0,20.212,20.213h0a20.226,20.226,0,0,0,20.222-20.231v-.013c0-2.487,0-4.208,0-4.314a38.334,38.334,0,1,1,59.011,32.272l.007.009s-28.767,18.519-37.538,43.925l.008,0a56.3,56.3,0,0,0-2.32,16.033c0,2.231.131,21.755.385,37.6a20.836,20.836,0,0,0,20.838,20.5h0a20.842,20.842,0,0,0,20.841-20.842c0-.042,0-.086,0-.128-.088-14.512-.136-31.41-.136-32.637,0-15.6,15.05-31.143,27.411-41.279A83.137,83.137,0,0,0,452.2,158.793a51.94,51.94,0,0,0,1.5-11.28A79.513,79.513,0,0,0,374.187,68Z" transform="translate(-118.172 -27.27)" fill="#2c3392"/>
    <path id="Tracé_79" data-name="Tracé 79" d="M505.221,594.307H.716a.713.713,0,0,1,0-1.427H505.221a.713.713,0,0,1,0,1.427Z" transform="translate(0 -237.765)" fill="#3f3d56"/>
    <circle id="Ellipse_11" data-name="Ellipse 11" cx="17.969" cy="17.969" r="17.969" transform="translate(358.453 127.577)" fill="#2f2e41"/>
    <path id="Tracé_80" data-name="Tracé 80" d="M565.756,563.165h-7.343l-3.494-28.324h10.838Z" transform="translate(-222.539 -214.49)" fill="#be806c"/>
    <path id="Tracé_81" data-name="Tracé 81" d="M546.026,578.626h14.161v8.916H537.109A8.917,8.917,0,0,1,546.026,578.626Z" transform="translate(-215.396 -232.049)" fill="#2f2e41"/>
    <path id="Tracé_82" data-name="Tracé 82" d="M660.756,563.165h-7.343l-3.494-28.324h10.838Z" transform="translate(-260.637 -214.49)" fill="#be806c"/>
    <path id="Tracé_83" data-name="Tracé 83" d="M641.026,578.626h14.161v8.916H632.109A8.917,8.917,0,0,1,641.026,578.626Z" transform="translate(-253.495 -232.049)" fill="#2f2e41"/>
    <circle id="Ellipse_12" data-name="Ellipse 12" cx="14.711" cy="14.711" r="14.711" transform="translate(358.98 134.198)" fill="#be806c"/>
    <path id="Tracé_84" data-name="Tracé 84" d="M603.312,324.3l6.583-15.124a18.8,18.8,0,0,0-4.163-21.323,19.049,19.049,0,0,0-1.839-1.6,18.528,18.528,0,0,0-11.374-3.935,19.269,19.269,0,0,0-8.026,1.785c-.216.1-.425.2-.641.3-.413.2-.821.413-1.216.635a18.974,18.974,0,0,0-9.4,14.3l-2.9,24.342c-.731,1.911-26.8,70.911-17.682,123.591a2.675,2.675,0,0,0,2.288,2.2l9.242,1.258a2.694,2.694,0,0,0,3-2.114l15.507-73.918a2.1,2.1,0,0,1,4.073-.138l21.91,77.734a2.678,2.678,0,0,0,2.581,1.965,3.111,3.111,0,0,0,.521-.048l11.291-2.174a2.679,2.679,0,0,0,2.174-2.881C623.575,430.65,614.758,337.972,603.312,324.3Z" transform="translate(-220.852 -113.218)" fill="#2f2e41"/>
    <path id="Tracé_85" data-name="Tracé 85" d="M528.411,265.439a6.022,6.022,0,0,0,6.346,6.71l8.223,19.762,6.221-9.221-8.763-17.352a6.056,6.056,0,0,0-12.027.1Z" transform="translate(-211.892 -104.287)" fill="#be806c"/>
    <path id="Tracé_86" data-name="Tracé 86" d="M617.965,369.4a6.023,6.023,0,0,0,5.047-7.734l17.3-12.6-10.417-3.9-14.832,12.564a6.056,6.056,0,0,0,2.9,11.672Z" transform="translate(-245.09 -138.422)" fill="#be806c"/>
    <path id="Tracé_87" data-name="Tracé 87" d="M561.2,315.5a10.216,10.216,0,0,1-1.976-.195,9.766,9.766,0,0,1-7.156-5.76L540.55,295.5a2.7,2.7,0,0,1,.375-3.794,2.632,2.632,0,0,1,.29-.207l8.2-5.074a2.7,2.7,0,0,1,3.711.873l.012.02,8.12,13.377L576.8,289.2a5.823,5.823,0,0,1,6.774,9.321l-15.52,14.158A9.736,9.736,0,0,1,561.2,315.5Z" transform="translate(-216.531 -114.704)" fill="#2f2e41"/>
    <path id="Tracé_88" data-name="Tracé 88" d="M638.906,339.57h-.064a2.7,2.7,0,0,1-1.983-.94l-7.287-8.5a2.7,2.7,0,0,1,.292-3.8,2.6,2.6,0,0,1,.259-.2l13.646-9.1-12.362-14.862a5.823,5.823,0,0,1,8.918-7.3l15.024,14.682a9.9,9.9,0,0,1-2.2,16.136l-12.279,13.03A2.7,2.7,0,0,1,638.906,339.57Z" transform="translate(-252.217 -117.645)" fill="#2f2e41"/>
    <path id="Tracé_89" data-name="Tracé 89" d="M612.2,302.815a2.728,2.728,0,0,1-.35-.022,2.673,2.673,0,0,1-2.223-1.838l-5.476-16.788a1.846,1.846,0,0,1,.955-2.231l.178-.085c.161-.077.32-.152.483-.224a19.511,19.511,0,0,1,8.148-1.811A18.756,18.756,0,0,1,624.19,282.9a1.874,1.874,0,0,1,.54,2.572L614.458,301.57A2.668,2.668,0,0,1,612.2,302.815Z" transform="translate(-242.246 -112.216)" fill="#e6e6e6"/>
    <circle id="Ellipse_13" data-name="Ellipse 13" cx="5.88" cy="5.88" r="5.88" transform="translate(384.709 125.765)" fill="#2f2e41"/>
    <path id="Tracé_90" data-name="Tracé 90" d="M608.022,209h0a15.573,15.573,0,0,0-15.573,15.573v6.589h8.1l3.876-6.589,1.163,6.589h24.593l-6.589-6.589A15.573,15.573,0,0,0,608.022,209Z" transform="translate(-237.59 -83.815)" fill="#2f2e41"/>
    <path id="Tracé_91" data-name="Tracé 91" d="M657.147,208.837a9.074,9.074,0,0,1,9.871-6.227c3.747.627,6.71,3.639,8.475,7s2.58,7.13,3.767,10.738,2.869,7.238,5.865,9.574,7.593,2.97,10.536.567a12.05,12.05,0,0,1-22.447,4.3c-1.553-2.762-1.953-6-2.414-9.135s-1.059-6.379-2.912-8.949-5.324-4.248-8.268-3.077Z" transform="translate(-263.536 -81.22)" fill="#2f2e41"/>
    <path id="Tracé_92" data-name="Tracé 92" d="M320.4,185.894h0a20.214,20.214,0,0,1-20.212-20.213c0-3.656,0-6.451.008-6.849a78.769,78.769,0,0,1,9.2-35.883,78.943,78.943,0,0,0-15.189,45.467c-.006.4-.008,3.193-.008,6.849a20.214,20.214,0,0,0,20.212,20.213h0a20.227,20.227,0,0,0,19.459-14.729A20.136,20.136,0,0,1,320.4,185.894Z" transform="translate(-117.983 -49.307)" fill="#3f3d56"/>
    <path id="Tracé_93" data-name="Tracé 93" d="M407.993,132.662a38.337,38.337,0,0,1,33.338,53.555A38.332,38.332,0,1,0,376.986,146.1,38.256,38.256,0,0,1,407.993,132.662Z" transform="translate(-151.182 -49.341)" fill="#3f3d56"/>
    <path id="Tracé_94" data-name="Tracé 94" d="M420.915,383.308h0a20.835,20.835,0,0,1-20.838-20.5c-.254-15.846-.385-35.37-.385-37.6a56.32,56.32,0,0,1,2.32-16.033l-.007,0a57.006,57.006,0,0,1,3.291-7.607,65.933,65.933,0,0,0-9.28,17.19l.007,0a56.321,56.321,0,0,0-2.32,16.033c0,2.232.131,21.756.385,37.6a20.835,20.835,0,0,0,20.838,20.5h0a20.845,20.845,0,0,0,20.006-15A20.757,20.757,0,0,1,420.915,383.308Z" transform="translate(-157.885 -120.939)" fill="#3f3d56"/>
    <path id="Tracé_95" data-name="Tracé 95" d="M126.54,563.621h7.343l3.494-28.324H126.538Z" transform="translate(-50.744 -214.672)" fill="#be806c"/>
    <path id="Tracé_96" data-name="Tracé 96" d="M146.992,588H123.914v-8.917h14.162A8.918,8.918,0,0,1,146.992,588Z" transform="translate(-49.691 -232.231)" fill="#2f2e41"/>
    <path id="Tracé_97" data-name="Tracé 97" d="M82.54,563.621h7.343L93.376,535.3H82.538Z" transform="translate(-33.098 -214.672)" fill="#be806c"/>
    <path id="Tracé_98" data-name="Tracé 98" d="M102.992,588H79.914v-8.917H94.075A8.917,8.917,0,0,1,102.992,588Z" transform="translate(-32.045 -232.231)" fill="#2f2e41"/>
    <path id="Tracé_99" data-name="Tracé 99" d="M86.676,502.246,79.5,501.87a2.8,2.8,0,0,1-2.648-2.943l0-.032,8.572-94.916,39.478,10.653,3.8-1.038L116.817,497.62a2.812,2.812,0,0,1-2.61,2.362l-7.732.361a2.8,2.8,0,0,1-2.951-2.64c0-.077-.005-.155,0-.232l1.4-50.431a.933.933,0,0,0-1.847-.216l-13.511,53.2a2.783,2.783,0,0,1-2.737,2.232C86.778,502.251,86.727,502.25,86.676,502.246Z" transform="translate(-30.818 -162.009)" fill="#2f2e41"/>
    <circle id="Ellipse_14" data-name="Ellipse 14" cx="14.711" cy="14.711" r="14.711" transform="translate(62.403 134.886)" fill="#be806c"/>
    <path id="Tracé_100" data-name="Tracé 100" d="M87.833,306.312l1.617,34.9.585,12.7a2.781,2.781,0,0,0,1.842,2.5l37.936,13.742a2.665,2.665,0,0,0,.958.168,2.781,2.781,0,0,0,2.795-2.768c0-.034,0-.067,0-.1L132.008,304.7a22.119,22.119,0,0,0-18.414-21.369c-.367-.056-.74-.112-1.114-.162a21.716,21.716,0,0,0-17.469,5.655,22.3,22.3,0,0,0-7.179,17.487Z" transform="translate(-35.211 -113.494)" fill="#ccc"/>
    <path id="Tracé_101" data-name="Tracé 101" d="M177.425,398.856a6.028,6.028,0,0,1-3.216-9.12l-12.865-17.107,11.1-.687,10.514,16.35a6.056,6.056,0,0,1-5.536,10.564Z" transform="translate(-64.702 -149.161)" fill="#be806c"/>
    <path id="Tracé_102" data-name="Tracé 102" d="M158.7,357.616a2.782,2.782,0,0,1-1.522-1.508L137.8,309.931a7.465,7.465,0,0,1,13.762-5.788l0,.01,19.381,46.178a2.8,2.8,0,0,1-1.5,3.664l-8.6,3.611a2.782,2.782,0,0,1-2.142.01Z" transform="translate(-55.025 -120.138)" fill="#ccc"/>
    <path id="Tracé_103" data-name="Tracé 103" d="M120.623,368.847,139.239,333.2a2.922,2.922,0,0,1,3.938-1.236l27.02,14.112a2.922,2.922,0,0,1,1.236,3.938l-18.616,35.644a2.922,2.922,0,0,1-3.938,1.236l-27.02-14.112A2.923,2.923,0,0,1,120.623,368.847Z" transform="translate(-48.239 -132.998)" fill="#3f3d56"/>
    <path id="Tracé_104" data-name="Tracé 104" d="M123.5,356.863a6.028,6.028,0,0,0-9.294-2.672L96.373,342.359l-.031,11.123,16.942,9.531a6.056,6.056,0,0,0,10.218-6.15Z" transform="translate(-38.634 -137.298)" fill="#be806c"/>
    <path id="Tracé_105" data-name="Tracé 105" d="M89.584,339.038,75.008,327.491a10.28,10.28,0,0,1-4.686-16.253l13.235-17.346a6.047,6.047,0,0,1,10.26,6.16l-10.472,17.13,15.39,7.3a2.8,2.8,0,0,1,1.33,3.729,2.674,2.674,0,0,1-.163.3l-6.212,9.831a2.8,2.8,0,0,1-1.9,1.264l-.047.007A2.815,2.815,0,0,1,89.584,339.038Z" transform="translate(-27.267 -116.972)" fill="#ccc"/>
    <path id="Tracé_106" data-name="Tracé 106" d="M105.34,245.735a1.279,1.279,0,0,1,.8-1.623,1.258,1.258,0,0,1,.315-.065,2.954,2.954,0,0,1,2.083,1.027,8.251,8.251,0,0,0,1.839,1.579,1.582,1.582,0,0,0,2.082-.376,2.893,2.893,0,0,0-.11-2.248,22.106,22.106,0,0,1-.976-5.852,10.307,10.307,0,0,1,1.473-6.259c1.584-2.231,4.416-3.077,7.1-3.016s5.316.889,7.97,1.412a2.68,2.68,0,0,0,2.607-.437c.652-.755.412-1.978.135-3-.719-2.646-1.482-5.382-3.154-7.518a11.319,11.319,0,0,0-7.224-4.068,17.329,17.329,0,0,0-8.063.916,21.621,21.621,0,0,0-10.592,7.378,17.512,17.512,0,0,0-3.341,12.938,15.973,15.973,0,0,0,5.921,10.095Z" transform="translate(-39.342 -86.287)" fill="#2f2e41"/>
    <path id="Tracé_107" data-name="Tracé 107" d="M406.842,554.11a27.549,27.549,0,0,1-10.224-42.819,27.551,27.551,0,1,0,37.477,39.81A27.534,27.534,0,0,1,406.842,554.11Z" transform="translate(-154.52 -205.045)" fill="#3f3d56"/>
  </g>
</svg>
